<svg xmlns="http://www.w3.org/2000/svg" width="268.75" height="225.88" viewBox="0 0 268.75 225.88">
  <defs>
    <style>
      .cls-1 {
        fill: #b7b6b7;
      }

      .cls-2 {
        fill: #b79191;
      }

      .cls-3 {
        fill: #fff;
      }

      .cls-4 {
        fill: #ff9881;
      }

      .cls-5 {
        fill: #565352;
      }

      .cls-10, .cls-12, .cls-21, .cls-29, .cls-6, .cls-9 {
        fill: none;
        stroke-miterlimit: 10;
      }

      .cls-6, .cls-9 {
        stroke: #7f5d5d;
      }

      .cls-7 {
        fill: #fcf3fb;
      }

      .cls-8 {
        fill: #f7dddc;
      }

      .cls-12, .cls-21, .cls-9 {
        stroke-linecap: round;
      }

      .cls-10 {
        stroke: #f78d37;
      }

      .cls-11 {
        fill: #f47d6e;
      }

      .cls-12 {
        stroke: #f9eeed;
      }

      .cls-13 {
        fill: #f7c4ba;
      }

      .cls-14 {
        fill: #f9eeed;
      }

      .cls-15 {
        fill: #8c8685;
      }

      .cls-16 {
        fill: #a44f52;
      }

      .cls-17 {
        fill: #562f23;
      }

      .cls-18 {
        fill: #ea563d;
      }

      .cls-19 {
        fill: #ff8;
      }

      .cls-20 {
        fill: #ff8c5f;
      }

      .cls-21 {
        stroke: #ba3169;
      }

      .cls-22 {
        fill: #eeb5f7;
      }

      .cls-23 {
        fill: #996a50;
      }

      .cls-24 {
        fill: #aeaeaf;
      }

      .cls-25 {
        fill: #d2a56d;
      }

      .cls-26 {
        fill: #ce8b54;
      }

      .cls-27 {
        fill: #bd7e4a;
      }

      .cls-28 {
        fill: #96613d;
      }

      .cls-29 {
        stroke: #859bc1;
      }

      .cls-30 {
        fill: #e4eaf4;
      }
    </style>
  </defs>
  <g id="Layer_4" data-name="Layer 4">
    <g>
      <ellipse class="cls-1" cx="86.84" cy="37.29" rx="34.02" ry="32.6"/>
      <path class="cls-2" d="M119.56,48.1a10.36,10.36,0,0,0-1.12.07V35.8A22.89,22.89,0,0,0,95.55,12.9H78.61a24.4,24.4,0,0,0-24.4,24.4V48.17a10,10,0,0,0-1.11-.07,9.76,9.76,0,0,0,0,19.51,10,10,0,0,0,1.11-.07V83.07A24.89,24.89,0,0,0,79.1,108H94.23a24.21,24.21,0,0,0,24.21-24.21V67.54a10.36,10.36,0,0,0,1.12.07,9.76,9.76,0,0,0,0-19.51Z"/>
      <path class="cls-1" d="M76.52,53.51H98.09A15.31,15.31,0,0,1,113.4,68.82V109.4a7.76,7.76,0,0,1-7.76,7.76H66.84a7.59,7.59,0,0,1-7.59-7.59V70.77A17.27,17.27,0,0,1,76.52,53.51Z"/>
      <path class="cls-3" d="M77,61.39H96.66s.94,8.62-9.82,8.5S77,61.39,77,61.39Z"/>
      <ellipse class="cls-4" cx="110.73" cy="56.1" rx="4.19" ry="2.6"/>
      <ellipse class="cls-4" cx="60.6" cy="56.1" rx="4.19" ry="2.6"/>
      <ellipse class="cls-5" cx="76.26" cy="41.05" rx="2.36" ry="3.38"/>
      <ellipse class="cls-5" cx="96.37" cy="41.05" rx="2.36" ry="3.38"/>
      <ellipse class="cls-1" cx="86.84" cy="17.73" rx="19.86" ry="11.56"/>
      <g>
        <path class="cls-6" d="M89.82,34.42H111.4a0,0,0,0,1,0,0V46.06a5.22,5.22,0,0,1-5.22,5.22H94.56a4.74,4.74,0,0,1-4.74-4.74V34.42A0,0,0,0,1,89.82,34.42Z"/>
        <path class="cls-6" d="M61.47,34.42H83.05a0,0,0,0,1,0,0V46.06a5.22,5.22,0,0,1-5.22,5.22H66.21a4.74,4.74,0,0,1-4.74-4.74V34.42A0,0,0,0,1,61.47,34.42Z"/>
        <line class="cls-6" x1="111.4" y1="34.42" x2="118.44" y2="34.42"/>
        <line class="cls-6" x1="61.47" y1="34.42" x2="54.21" y2="34.42"/>
        <line class="cls-6" x1="83.05" y1="37.6" x2="89.82" y2="37.63"/>
      </g>
    </g>
    <g>
      <path class="cls-7" d="M136.67,55.27s-19.95,5-14.7,21.11,14,24.5,20.3,24.85,44.91,4.59,53.66-4.16,15.28-6.69,17.38-19.64-4.55-16.63-9.8-20S136.67,55.27,136.67,55.27Z"/>
      <path class="cls-8" d="M199.2,59.48c.05-.78.09-1.56.09-2.35a31.31,31.31,0,1,0-62.62,0c0,.65,0,1.3.07,1.95h-.07a7.43,7.43,0,0,0,0,14.85,7.33,7.33,0,0,0,4.13-1.26,31.31,31.31,0,0,0,53.85.88,7.21,7.21,0,0,0,2.24.38,7.4,7.4,0,0,0,2.31-14.44Z"/>
      <path class="cls-7" d="M187.86,34.54s-4.67,9.6-18.47,9.84c-7.9.13-16.49.11-22.39.07-4.54,0-7.06,3.31-8,7.75-.59,2.92-4.17,6.22-3.33,6.94,0,0-4.15-3.82-5.21-.63s-1.85-10.81,2.18-18.83S139.25,22.2,148,17.26a52.68,52.68,0,0,1,26.31-7c8.7,0,9.13,4.94,13.59,9.67s10,11,12.31,15.38c2.07,3.87,3.3,13.2,3.11,17.27a16.15,16.15,0,0,0,.12,3c.4,2.9,2,7.66.92,8.51a5.73,5.73,0,0,0-5.88-4.55S197.41,41.41,187.86,34.54Z"/>
      <ellipse class="cls-4" cx="189.72" cy="61.31" rx="3.35" ry="2.68"/>
      <ellipse class="cls-4" cx="142.63" cy="61.31" rx="3.35" ry="2.68"/>
      <ellipse class="cls-5" cx="158.12" cy="56.5" rx="1.89" ry="2.71"/>
      <ellipse class="cls-5" cx="174.23" cy="56.5" rx="1.89" ry="2.71"/>
      <path class="cls-9" d="M162,67.69s.93,3.61,3.72,3.79,3.87-3.52,3.87-3.79"/>
      <g>
        <circle class="cls-10" cx="156.42" cy="55.76" r="8.24"/>
        <circle class="cls-10" cx="178.04" cy="55.76" r="8.24"/>
        <line class="cls-10" x1="164.66" y1="55.76" x2="169.8" y2="55.76"/>
        <line class="cls-10" x1="186.28" y1="55.76" x2="197.7" y2="55.76"/>
        <line class="cls-10" x1="148.18" y1="55.76" x2="136.92" y2="55.76"/>
      </g>
      <circle class="cls-11" cx="136.92" cy="72.66" r="2"/>
      <circle class="cls-11" cx="198.3" cy="72.66" r="2"/>
      <path class="cls-12" d="M150.28,55.91s-.68-3.38,1.35-4.23"/>
      <path class="cls-12" d="M183.85,55.91s.67-3.38-1.36-4.23"/>
    </g>
    <g>
      <path class="cls-13" d="M186.47,91.43h28.07a13.77,13.77,0,0,1,13.77,13.77v55.3a14.57,14.57,0,0,1-14.57,14.57h-27a15,15,0,0,1-15-15v-54A14.68,14.68,0,0,1,186.47,91.43Z"/>
      <circle class="cls-13" cx="170.81" cy="130.99" r="8.58"/>
      <circle class="cls-13" cx="229.29" cy="130.99" r="8.58"/>
      <g>
        <path class="cls-6" d="M203.13,114.65h19a0,0,0,0,1,0,0v9.62a5.22,5.22,0,0,1-5.22,5.22h-9a4.74,4.74,0,0,1-4.74-4.74v-10.1A0,0,0,0,1,203.13,114.65Z"/>
        <path class="cls-6" d="M178.18,114.65h19a0,0,0,0,1,0,0v9.62a5.22,5.22,0,0,1-5.22,5.22h-9a4.74,4.74,0,0,1-4.74-4.74v-10.1A0,0,0,0,1,178.18,114.65Z"/>
        <line class="cls-6" x1="222.12" y1="114.65" x2="228.31" y2="114.65"/>
        <line class="cls-6" x1="178.18" y1="114.65" x2="171.79" y2="114.65"/>
        <line class="cls-6" x1="197.17" y1="117.45" x2="203.13" y2="117.48"/>
      </g>
      <circle class="cls-5" cx="212.99" cy="120.46" r="2.54"/>
      <circle class="cls-5" cx="187.3" cy="120.46" r="2.54"/>
      <path class="cls-9" d="M192.25,137.49s1.91,7.46,7.64,7.83,8-7.27,8-7.83"/>
      <ellipse class="cls-4" cx="217.86" cy="135.6" rx="2.68" ry="2.28"/>
      <ellipse class="cls-4" cx="182.44" cy="135.71" rx="2.68" ry="2.28"/>
      <path class="cls-14" d="M204.57,115.83h3.17a0,0,0,0,1,0,0v6.58a0,0,0,0,1,0,0h-2a1.14,1.14,0,0,1-1.14-1.14v-5.44A0,0,0,0,1,204.57,115.83Z"/>
      <path class="cls-14" d="M179.76,115.83h3.17a0,0,0,0,1,0,0v6.58a0,0,0,0,1,0,0h-2a1.14,1.14,0,0,1-1.14-1.14v-5.44A0,0,0,0,1,179.76,115.83Z"/>
      <circle class="cls-15" cx="175.7" cy="156.72" r="0.8"/>
      <circle class="cls-15" cx="178.99" cy="160.01" r="0.8"/>
      <circle class="cls-15" cx="174.9" cy="160.82" r="0.8"/>
      <circle class="cls-15" cx="177.39" cy="162.42" r="0.8"/>
      <circle class="cls-15" cx="180.59" cy="162.84" r="0.8"/>
      <circle class="cls-15" cx="180.59" cy="165.98" r="0.8"/>
      <circle class="cls-15" cx="183.89" cy="165.98" r="0.8"/>
      <circle class="cls-15" cx="183.89" cy="168.16" r="0.8"/>
      <circle class="cls-15" cx="224.4" cy="157.12" r="0.8"/>
      <circle class="cls-15" cx="221.11" cy="160.41" r="0.8"/>
      <circle class="cls-15" cx="225.2" cy="161.21" r="0.8"/>
      <circle class="cls-15" cx="222.72" cy="162.82" r="0.8"/>
      <circle class="cls-15" cx="219.51" cy="163.24" r="0.8"/>
      <circle class="cls-15" cx="219.51" cy="166.38" r="0.8"/>
      <circle class="cls-15" cx="216.22" cy="166.38" r="0.8"/>
      <circle class="cls-15" cx="216.22" cy="168.56" r="0.8"/>
      <circle class="cls-15" cx="190.91" cy="158.89" r="0.8"/>
      <circle class="cls-15" cx="193.05" cy="131.8" r="0.8"/>
      <circle class="cls-15" cx="190.91" cy="134.23" r="0.8"/>
      <circle class="cls-15" cx="187.67" cy="137.49" r="0.8"/>
      <circle class="cls-15" cx="206.96" cy="131.8" r="0.8"/>
      <circle class="cls-15" cx="209.74" cy="134.29" r="0.8"/>
      <circle class="cls-15" cx="213.42" cy="133.31" r="0.8"/>
      <circle class="cls-15" cx="212.99" cy="137.19" r="0.8"/>
      <circle class="cls-15" cx="211.82" cy="140.13" r="0.8"/>
      <circle class="cls-15" cx="188.1" cy="134.8" r="0.8"/>
      <circle class="cls-15" cx="204.57" cy="133.49" r="0.8"/>
      <circle class="cls-15" cx="195.8" cy="133.99" r="0.8"/>
      <circle class="cls-15" cx="194.2" cy="162.18" r="0.8"/>
      <circle class="cls-15" cx="190.11" cy="162.99" r="0.8"/>
      <circle class="cls-15" cx="192.59" cy="164.59" r="0.8"/>
      <circle class="cls-15" cx="186.43" cy="171.13" r="0.8"/>
      <circle class="cls-15" cx="188.92" cy="172.74" r="0.8"/>
      <circle class="cls-15" cx="196.24" cy="171.13" r="0.8"/>
      <circle class="cls-15" cx="198.73" cy="172.74" r="0.8"/>
      <circle class="cls-15" cx="193.03" cy="167.76" r="0.8"/>
      <circle class="cls-15" cx="190.55" cy="169.36" r="0.8"/>
      <circle class="cls-15" cx="185.93" cy="162.02" r="0.8"/>
      <circle class="cls-15" cx="186.73" cy="165.58" r="0.8"/>
      <circle class="cls-15" cx="190.27" cy="166.78" r="0.8"/>
      <circle class="cls-15" cx="187.53" cy="167.93" r="0.8"/>
      <circle class="cls-15" cx="183.44" cy="163.62" r="0.8"/>
      <circle class="cls-15" cx="195.8" cy="165.01" r="0.8"/>
      <circle class="cls-15" cx="195.8" cy="168.15" r="0.8"/>
      <circle class="cls-15" cx="199.09" cy="168.15" r="0.8"/>
      <circle class="cls-15" cx="199.09" cy="170.33" r="0.8"/>
      <circle class="cls-15" cx="202.58" cy="163.73" r="0.8"/>
      <circle class="cls-15" cx="201.23" cy="165.45" r="0.8"/>
      <circle class="cls-15" cx="207.13" cy="165.39" r="0.8"/>
      <circle class="cls-15" cx="203.38" cy="167.35" r="0.8"/>
      <circle class="cls-15" cx="204.75" cy="169.53" r="0.8"/>
      <circle class="cls-15" cx="208.22" cy="168.73" r="0.8"/>
      <circle class="cls-15" cx="209.35" cy="162.93" r="0.8"/>
      <circle class="cls-15" cx="212.95" cy="162.18" r="0.8"/>
      <circle class="cls-15" cx="209.35" cy="160.42" r="0.8"/>
      <circle class="cls-15" cx="210.63" cy="164.64" r="0.8"/>
      <circle class="cls-15" cx="212.15" cy="166.19" r="0.8"/>
      <circle class="cls-15" cx="212.15" cy="168.73" r="0.8"/>
      <circle class="cls-15" cx="210.54" cy="170.33" r="0.8"/>
      <circle class="cls-15" cx="207.13" cy="171.47" r="0.8"/>
      <circle class="cls-15" cx="203.11" cy="171.47" r="0.8"/>
      <circle class="cls-15" cx="198.29" cy="163.41" r="0.8"/>
      <circle class="cls-15" cx="199.09" cy="161.22" r="0.8"/>
      <path class="cls-16" d="M171.79,108.72s7.33-10.94,13-9.73,9.46,7.3,13.53,7.3,10.35-7.09,13.9-6.28,16.12,3.65,16.12,7.29c0,0,2.35-13-6.19-15,0,0-1.58-.89-6.19-.89H183.61s-4.6-.53-7.69,2.46-3.72,4.37-3.92,6.49S171.79,108.72,171.79,108.72Z"/>
    </g>
    <g>
      <path class="cls-17" d="M161.12,120.86s8.74,2.92,8.13,10.75-7.12,11.33-8.95,12.33-56.72,0-56.72,0-14.44-3.14-14.23-11.32S94,120.86,94,120.86s-5.69-7.92-3.45-14.75,8.13-17,12.2-19.51,6.3-6.95,16.46-8.31,20.68.18,23.93,1.32,9.42,5.33,13.28,9.83S169.25,108.27,161.12,120.86Z"/>
      <circle class="cls-8" cx="126.95" cy="119.96" r="28.22"/>
      <path class="cls-17" d="M148.91,96.68s-1.44,12.6-13.32,14.76-33.85-5.76-37.09,1.8-5.4-10.08,5.4-16.56S141,88.76,148.91,96.68Z"/>
      <path class="cls-3" d="M117.18,130.41h18.26s.87,5.23-9.13,5.15S117.18,130.41,117.18,130.41Z"/>
      <line class="cls-9" x1="112.67" y1="118.29" x2="110.51" y2="116.92"/>
      <line class="cls-9" x1="112.26" y1="119.86" x2="109.73" y2="119.51"/>
      <circle class="cls-5" cx="114.78" cy="119.68" r="2.38"/>
      <line class="cls-9" x1="141.22" y1="118.47" x2="143.38" y2="117.11"/>
      <line class="cls-9" x1="141.63" y1="120.04" x2="144.16" y2="119.69"/>
      <circle class="cls-5" cx="139.11" cy="119.87" r="2.38"/>
      <ellipse class="cls-4" cx="142.92" cy="127.81" rx="2.51" ry="2.14"/>
      <ellipse class="cls-4" cx="109.7" cy="127.91" rx="2.51" ry="2.14"/>
      <path class="cls-18" d="M117.18,130.41s8.64-3.31,9.13,0Z"/>
      <path class="cls-18" d="M135.44,130.41s-8.64-3.31-9.13,0Z"/>
      <circle class="cls-8" cx="155.08" cy="123.28" r="4.95"/>
      <circle class="cls-8" cx="98.73" cy="123.28" r="4.95"/>
      <circle class="cls-19" cx="157.14" cy="128.23" r="2.06"/>
      <circle class="cls-19" cx="96.67" cy="128.23" r="2.06"/>
    </g>
    <circle class="cls-20" cx="136.39" cy="177.83" r="31.93"/>
    <path class="cls-20" d="M97,173.67h7.48a0,0,0,0,1,0,0v23.14a14.55,14.55,0,0,1-14.55,14.55H82.08a0,0,0,0,1,0,0V188.57A14.9,14.9,0,0,1,97,173.67Z" transform="translate(47.55 -16.46) rotate(13.51)"/>
    <path class="cls-20" d="M169,173.62h7.83a14.55,14.55,0,0,1,14.55,14.55v23.14a0,0,0,0,1,0,0h-7.48a14.9,14.9,0,0,1-14.9-14.9V173.62a0,0,0,0,1,0,0Z" transform="matrix(-0.97, 0.23, -0.23, -0.97, 400.33, 337.53)"/>
    <line class="cls-21" x1="168.74" y1="175.78" x2="165.13" y2="190.58"/>
    <line class="cls-21" x1="104.46" y1="175.78" x2="108.07" y2="190.58"/>
    <path class="cls-8" d="M165.26,183.28c.05-.71.09-1.43.09-2.15a28.63,28.63,0,0,0-57.26,0c0,.6,0,1.2.06,1.79h-.06a6.79,6.79,0,1,0,3.77,12.43,28.63,28.63,0,0,0,49.24.8,6.94,6.94,0,0,0,2.05.35,6.77,6.77,0,0,0,2.11-13.21Z"/>
    <path class="cls-20" d="M147.75,155.71s.73,15.73-11.33,16.78A272.58,272.58,0,0,1,109,173a16,16,0,0,1,7-16.05C125.13,150.5,148.46,149.25,147.75,155.71Z"/>
    <circle class="cls-5" cx="125.02" cy="180.06" r="2.29"/>
    <circle class="cls-5" cx="148.44" cy="180.24" r="2.29"/>
    <ellipse class="cls-22" cx="152.61" cy="189.21" rx="2.42" ry="2.06"/>
    <ellipse class="cls-22" cx="120.63" cy="189.31" rx="2.42" ry="2.06"/>
    <path class="cls-9" d="M132.85,190.58s.92,3.59,3.69,3.77,3.84-3.5,3.84-3.77"/>
    <g>
      <path class="cls-23" d="M91,150.08V128.51H38.61v21.57a7.54,7.54,0,0,0,0,15.08h0a27.45,27.45,0,0,0,27.42,26.57h0A24.89,24.89,0,0,0,91,166.84v-1.68a7.54,7.54,0,1,0,0-15.08Z"/>
      <circle class="cls-5" cx="55.81" cy="150.3" r="2.59"/>
      <circle class="cls-5" cx="74.66" cy="150.19" r="2.59"/>
      <circle class="cls-4" cx="82.1" cy="162.71" r="2.59"/>
      <circle class="cls-4" cx="47.59" cy="162.71" r="2.59"/>
      <path class="cls-24" d="M57.29,161.85H73.35s2.08,8.55-8,9S57.29,161.85,57.29,161.85Z"/>
      <path class="cls-1" d="M46.19,128.53h0Z"/>
      <path class="cls-25" d="M87.77,128.42v3H79.15c5,0,8,3.63,8.62,8.3v10.37h3.5V128.42Z"/>
      <path class="cls-25" d="M50.18,131.41H41.57v-3H38.06v21.66h3.51V139.71C42.14,135,45.14,131.41,50.18,131.41Z"/>
      <circle class="cls-26" cx="51.52" cy="122.21" r="15.57"/>
      <circle class="cls-27" cx="71.13" cy="119.82" r="11.94"/>
      <circle class="cls-28" cx="84.7" cy="126.77" r="7.35"/>
      <circle class="cls-28" cx="38.66" cy="132.46" r="3.92"/>
      <circle class="cls-28" cx="41.61" cy="136.38" r="2.52"/>
      <circle class="cls-29" cx="55.63" cy="150.19" r="7.32"/>
      <circle class="cls-29" cx="74.66" cy="150.19" r="7.32"/>
      <path class="cls-12" d="M50.78,151.63s-.8-4,1.6-5"/>
      <path class="cls-12" d="M69.89,151.63s-.8-4,1.6-5"/>
      <line class="cls-29" x1="47.77" y1="149.26" x2="41.57" y2="149.26"/>
      <line class="cls-29" x1="87.8" y1="149.26" x2="81.59" y2="149.26"/>
      <line class="cls-29" x1="67.95" y1="149.81" x2="62.69" y2="149.81"/>
      <path class="cls-30" d="M61.61,161.85H64.7a0,0,0,0,1,0,0v2.39a.7.7,0,0,1-.7.7H62.31a.7.7,0,0,1-.7-.7v-2.4a0,0,0,0,1,0,0Z"/>
      <path class="cls-30" d="M65.79,161.85h3.09a0,0,0,0,1,0,0v2.39a.7.7,0,0,1-.7.7H66.49a.7.7,0,0,1-.7-.7v-2.4A0,0,0,0,1,65.79,161.85Z"/>
    </g>
    <circle class="cls-20" cx="118.75" cy="185.49" r="0.21"/>
    <circle class="cls-20" cx="120.45" cy="186.68" r="0.21"/>
    <circle class="cls-20" cx="121.11" cy="185.52" r="0.21"/>
    <circle class="cls-20" cx="117.55" cy="186.47" r="0.21"/>
    <circle class="cls-20" cx="116.44" cy="185.9" r="0.21"/>
    <circle class="cls-20" cx="115.68" cy="187.34" r="0.21"/>
    <circle class="cls-20" cx="155.4" cy="185.34" r="0.21"/>
    <circle class="cls-20" cx="153.7" cy="186.53" r="0.21"/>
    <circle class="cls-20" cx="153.04" cy="185.37" r="0.21"/>
    <circle class="cls-20" cx="156.6" cy="186.33" r="0.21"/>
    <circle class="cls-20" cx="157.72" cy="185.76" r="0.21"/>
    <circle class="cls-20" cx="158.47" cy="187.19" r="0.21"/>
  </g>
</svg>
