<svg xmlns="http://www.w3.org/2000/svg" width="268.75" height="225.88" viewBox="0 0 268.75 225.88">
  <defs>
    <style>
      .cls-1 {
        fill: #f7c4ba;
      }

      .cls-2, .cls-21, .cls-22, .cls-25, .cls-4 {
        fill: none;
        stroke-miterlimit: 10;
      }

      .cls-2, .cls-4 {
        stroke: #7f5d5d;
      }

      .cls-3 {
        fill: #565352;
      }

      .cls-22, .cls-25, .cls-4 {
        stroke-linecap: round;
      }

      .cls-5 {
        fill: #ff9881;
      }

      .cls-6 {
        fill: #f9eeed;
      }

      .cls-7 {
        fill: #8c8685;
      }

      .cls-8 {
        fill: #a44f52;
      }

      .cls-9 {
        fill: #562f23;
      }

      .cls-10 {
        fill: #f7dddc;
      }

      .cls-11 {
        fill: #fff;
      }

      .cls-12 {
        fill: #ea563d;
      }

      .cls-13 {
        fill: #ff8;
      }

      .cls-14 {
        fill: #996a50;
      }

      .cls-15 {
        fill: #aeaeaf;
      }

      .cls-16 {
        fill: #b7b6b7;
      }

      .cls-17 {
        fill: #d2a56d;
      }

      .cls-18 {
        fill: #ce8b54;
      }

      .cls-19 {
        fill: #bd7e4a;
      }

      .cls-20 {
        fill: #96613d;
      }

      .cls-21 {
        stroke: #859bc1;
      }

      .cls-22 {
        stroke: #f9eeed;
      }

      .cls-23 {
        fill: #e4eaf4;
      }

      .cls-24 {
        fill: #ff8c5f;
      }

      .cls-25 {
        stroke: #ba3169;
      }

      .cls-26 {
        fill: #eeb5f7;
      }
    </style>
  </defs>
  <g id="Layer_4" data-name="Layer 4">
    <g>
      <path class="cls-1" d="M79.87,32h38A13.77,13.77,0,0,1,131.6,45.75v69.94A14.57,14.57,0,0,1,117,130.26H80.16a15,15,0,0,1-15-15V46.66A14.68,14.68,0,0,1,79.87,32Z"/>
      <circle class="cls-1" cx="64.03" cy="78.46" r="10.08"/>
      <circle class="cls-1" cx="132.75" cy="78.46" r="10.08"/>
      <g>
        <path class="cls-2" d="M102,59.25h22.31a0,0,0,0,1,0,0V71.47a5.22,5.22,0,0,1-5.22,5.22H106.74A4.74,4.74,0,0,1,102,71.95V59.25A0,0,0,0,1,102,59.25Z"/>
        <path class="cls-2" d="M72.69,59.25H95a0,0,0,0,1,0,0V71.47a5.22,5.22,0,0,1-5.22,5.22H77.43a4.74,4.74,0,0,1-4.74-4.74V59.25A0,0,0,0,1,72.69,59.25Z"/>
        <line class="cls-2" x1="124.32" y1="59.25" x2="131.6" y2="59.25"/>
        <line class="cls-2" x1="72.69" y1="59.25" x2="65.19" y2="59.25"/>
        <line class="cls-2" x1="95" y1="62.54" x2="102" y2="62.58"/>
      </g>
      <circle class="cls-3" cx="113.6" cy="66.08" r="2.99"/>
      <circle class="cls-3" cx="83.41" cy="66.08" r="2.99"/>
      <path class="cls-4" d="M89.23,86.09s2.24,8.77,9,9.21,9.36-8.55,9.36-9.21"/>
      <ellipse class="cls-5" cx="119.31" cy="83.87" rx="3.15" ry="2.68"/>
      <ellipse class="cls-5" cx="77.7" cy="84" rx="3.15" ry="2.68"/>
      <path class="cls-6" d="M103.7,60.64h3.72a0,0,0,0,1,0,0v7.73a0,0,0,0,1,0,0h-2.58a1.14,1.14,0,0,1-1.14-1.14V60.64A0,0,0,0,1,103.7,60.64Z"/>
      <path class="cls-6" d="M74.55,60.64h3.72a0,0,0,0,1,0,0v7.73a0,0,0,0,1,0,0H75.69a1.14,1.14,0,0,1-1.14-1.14V60.64A0,0,0,0,1,74.55,60.64Z"/>
      <circle class="cls-7" cx="69.78" cy="108.69" r="0.94"/>
      <circle class="cls-7" cx="73.65" cy="112.56" r="0.94"/>
      <circle class="cls-7" cx="68.84" cy="113.5" r="0.94"/>
      <circle class="cls-7" cx="71.76" cy="115.38" r="0.94"/>
      <circle class="cls-7" cx="75.53" cy="115.88" r="0.94"/>
      <circle class="cls-7" cx="75.53" cy="119.57" r="0.94"/>
      <circle class="cls-7" cx="79.4" cy="119.57" r="0.94"/>
      <circle class="cls-7" cx="79.4" cy="122.13" r="0.94"/>
      <circle class="cls-7" cx="127" cy="109.16" r="0.94"/>
      <circle class="cls-7" cx="123.14" cy="113.03" r="0.94"/>
      <circle class="cls-7" cx="127.95" cy="113.97" r="0.94"/>
      <circle class="cls-7" cx="125.02" cy="115.85" r="0.94"/>
      <circle class="cls-7" cx="121.26" cy="116.35" r="0.94"/>
      <circle class="cls-7" cx="121.26" cy="120.04" r="0.94"/>
      <circle class="cls-7" cx="117.39" cy="120.04" r="0.94"/>
      <circle class="cls-7" cx="117.39" cy="122.6" r="0.94"/>
      <circle class="cls-7" cx="87.65" cy="111.24" r="0.94"/>
      <circle class="cls-7" cx="90.17" cy="79.4" r="0.94"/>
      <circle class="cls-7" cx="87.65" cy="82.26" r="0.94"/>
      <circle class="cls-7" cx="83.85" cy="86.09" r="0.94"/>
      <circle class="cls-7" cx="106.51" cy="79.4" r="0.94"/>
      <circle class="cls-7" cx="109.78" cy="82.33" r="0.94"/>
      <circle class="cls-7" cx="114.1" cy="81.18" r="0.94"/>
      <circle class="cls-7" cx="113.6" cy="85.74" r="0.94"/>
      <circle class="cls-7" cx="112.22" cy="89.2" r="0.94"/>
      <circle class="cls-7" cx="84.35" cy="82.93" r="0.94"/>
      <circle class="cls-7" cx="103.7" cy="81.39" r="0.94"/>
      <circle class="cls-7" cx="93.4" cy="81.98" r="0.94"/>
      <circle class="cls-7" cx="91.51" cy="115.11" r="0.94"/>
      <circle class="cls-7" cx="86.71" cy="116.05" r="0.94"/>
      <circle class="cls-7" cx="89.63" cy="117.93" r="0.94"/>
      <circle class="cls-7" cx="82.39" cy="125.62" r="0.94"/>
      <circle class="cls-7" cx="85.31" cy="127.51" r="0.94"/>
      <circle class="cls-7" cx="93.92" cy="125.62" r="0.94"/>
      <circle class="cls-7" cx="96.84" cy="127.51" r="0.94"/>
      <circle class="cls-7" cx="90.15" cy="121.66" r="0.94"/>
      <circle class="cls-7" cx="87.22" cy="123.54" r="0.94"/>
      <circle class="cls-7" cx="81.8" cy="114.91" r="0.94"/>
      <circle class="cls-7" cx="82.74" cy="119.09" r="0.94"/>
      <circle class="cls-7" cx="86.9" cy="120.51" r="0.94"/>
      <circle class="cls-7" cx="83.69" cy="121.85" r="0.94"/>
      <circle class="cls-7" cx="78.88" cy="116.79" r="0.94"/>
      <circle class="cls-7" cx="93.4" cy="118.43" r="0.94"/>
      <circle class="cls-7" cx="93.4" cy="122.12" r="0.94"/>
      <circle class="cls-7" cx="97.27" cy="122.12" r="0.94"/>
      <circle class="cls-7" cx="97.27" cy="124.68" r="0.94"/>
      <circle class="cls-7" cx="101.36" cy="116.93" r="0.94"/>
      <circle class="cls-7" cx="99.78" cy="118.94" r="0.94"/>
      <circle class="cls-7" cx="106.71" cy="118.88" r="0.94"/>
      <circle class="cls-7" cx="102.31" cy="121.18" r="0.94"/>
      <circle class="cls-7" cx="103.91" cy="123.74" r="0.94"/>
      <circle class="cls-7" cx="107.99" cy="122.79" r="0.94"/>
      <circle class="cls-7" cx="109.32" cy="115.99" r="0.94"/>
      <circle class="cls-7" cx="113.55" cy="115.11" r="0.94"/>
      <circle class="cls-7" cx="109.32" cy="113.03" r="0.94"/>
      <circle class="cls-7" cx="110.82" cy="118" r="0.94"/>
      <circle class="cls-7" cx="112.61" cy="119.82" r="0.94"/>
      <circle class="cls-7" cx="112.61" cy="122.79" r="0.94"/>
      <circle class="cls-7" cx="110.72" cy="124.68" r="0.94"/>
      <circle class="cls-7" cx="106.71" cy="126.01" r="0.94"/>
      <circle class="cls-7" cx="101.99" cy="126.01" r="0.94"/>
      <circle class="cls-7" cx="96.32" cy="116.54" r="0.94"/>
      <circle class="cls-7" cx="97.27" cy="113.98" r="0.94"/>
      <path class="cls-8" d="M65.19,52.29s8.6-12.86,15.24-11.43,11.11,8.57,15.89,8.57,12.16-8.33,16.33-7.38,18.95,4.29,18.95,8.57c0,0,2.75-15.27-7.28-17.61,0,0-1.85-1-7.27-1h-38s-5.41-.63-9,2.88S65.67,40,65.43,42.49,65.19,52.29,65.19,52.29Z"/>
    </g>
    <g>
      <path class="cls-9" d="M220.18,92s10.11,3.37,9.4,12.43-8.23,13.11-10.34,14.27-65.59,0-65.59,0-16.7-3.64-16.46-13.1S142.6,92,142.6,92s-6.59-9.15-4-17.06,9.4-19.66,14.11-22.55,7.28-8,19-9.61,23.9.21,27.66,1.53,10.89,6.16,15.36,11.36S229.59,77.45,220.18,92Z"/>
      <circle class="cls-10" cx="180.67" cy="90.96" r="32.63"/>
      <path class="cls-9" d="M206.06,64.05s-1.66,14.57-15.4,17.07-39.14-6.67-42.88,2.08S141.53,71.54,154,64.05,196.9,54.89,206.06,64.05Z"/>
      <path class="cls-11" d="M169.38,103.05h21.11s1,6-10.56,6S169.38,103.05,169.38,103.05Z"/>
      <line class="cls-4" x1="164.16" y1="89.03" x2="161.66" y2="87.45"/>
      <line class="cls-4" x1="163.69" y1="90.84" x2="160.76" y2="90.44"/>
      <circle class="cls-3" cx="166.6" cy="90.64" r="2.76"/>
      <line class="cls-4" x1="197.17" y1="89.24" x2="199.67" y2="87.67"/>
      <line class="cls-4" x1="197.64" y1="91.06" x2="200.57" y2="90.65"/>
      <circle class="cls-3" cx="194.73" cy="90.86" r="2.76"/>
      <ellipse class="cls-5" cx="199.14" cy="100.04" rx="2.9" ry="2.48"/>
      <ellipse class="cls-5" cx="160.72" cy="100.16" rx="2.9" ry="2.48"/>
      <path class="cls-12" d="M169.38,103.05s10-3.84,10.55,0Z"/>
      <path class="cls-12" d="M190.49,103.05s-10-3.84-10.56,0Z"/>
      <circle class="cls-10" cx="213.2" cy="94.8" r="5.72"/>
      <circle class="cls-10" cx="148.04" cy="94.8" r="5.72"/>
      <circle class="cls-13" cx="215.58" cy="100.52" r="2.38"/>
      <circle class="cls-13" cx="145.66" cy="100.52" r="2.38"/>
    </g>
    <g>
      <path class="cls-14" d="M208.66,162.68V141.43H157.08v21.25a7.44,7.44,0,0,0,0,14.87h0a27,27,0,0,0,27,26.19h0a24.53,24.53,0,0,0,24.52-24.53v-1.65a7.44,7.44,0,0,0,0-14.87Z"/>
      <circle class="cls-3" cx="174.03" cy="162.9" r="2.56"/>
      <circle class="cls-3" cx="192.6" cy="162.8" r="2.56"/>
      <circle class="cls-5" cx="199.94" cy="175.13" r="2.56"/>
      <circle class="cls-5" cx="165.93" cy="175.13" r="2.56"/>
      <path class="cls-15" d="M175.49,174.28h15.83s2.05,8.43-7.92,8.84S175.49,174.28,175.49,174.28Z"/>
      <path class="cls-16" d="M164.55,141.45h0Z"/>
      <path class="cls-17" d="M205.52,141.34v2.95H197c5,0,7.93,3.58,8.49,8.17v10.23H209V141.34Z"/>
      <path class="cls-17" d="M168.49,144.29H160v-2.95h-3.46v21.35H160V152.46C160.55,147.87,163.52,144.29,168.49,144.29Z"/>
      <circle class="cls-18" cx="169.8" cy="135.22" r="15.34"/>
      <circle class="cls-19" cx="189.13" cy="132.86" r="11.77"/>
      <circle class="cls-20" cx="202.5" cy="139.71" r="7.24"/>
      <circle class="cls-20" cx="157.13" cy="145.32" r="3.86"/>
      <circle class="cls-20" cx="160.03" cy="149.19" r="2.48"/>
      <circle class="cls-21" cx="173.85" cy="162.8" r="7.21"/>
      <circle class="cls-21" cx="192.6" cy="162.8" r="7.21"/>
      <path class="cls-22" d="M169.07,164.21s-.79-4,1.58-4.94"/>
      <path class="cls-22" d="M187.9,164.21s-.79-4,1.59-4.94"/>
      <line class="cls-21" x1="166.11" y1="161.88" x2="159.99" y2="161.88"/>
      <line class="cls-21" x1="205.55" y1="161.88" x2="199.43" y2="161.88"/>
      <line class="cls-21" x1="185.99" y1="162.42" x2="180.81" y2="162.42"/>
      <path class="cls-23" d="M179.74,174.28h3a0,0,0,0,1,0,0v2.34a.7.7,0,0,1-.7.7h-1.65a.7.7,0,0,1-.7-.7v-2.35A0,0,0,0,1,179.74,174.28Z"/>
      <path class="cls-23" d="M183.87,174.28h3a0,0,0,0,1,0,0v2.34a.7.7,0,0,1-.7.7h-1.65a.7.7,0,0,1-.7-.7v-2.35A0,0,0,0,1,183.87,174.28Z"/>
    </g>
    <circle class="cls-24" cx="91.97" cy="155.23" r="31.93"/>
    <path class="cls-24" d="M52.56,151.07H60a0,0,0,0,1,0,0v23.14A14.55,14.55,0,0,1,45.5,188.76H37.66a0,0,0,0,1,0,0V166A14.9,14.9,0,0,1,52.56,151.07Z" transform="translate(41.04 -6.71) rotate(13.51)"/>
    <path class="cls-24" d="M124.57,151h7.83a14.55,14.55,0,0,1,14.55,14.55v23.14a0,0,0,0,1,0,0h-7.48a14.9,14.9,0,0,1-14.9-14.9V151a0,0,0,0,1,0,0Z" transform="translate(307.44 303.33) rotate(166.49)"/>
    <line class="cls-25" x1="124.32" y1="153.18" x2="120.71" y2="167.98"/>
    <line class="cls-25" x1="60.04" y1="153.18" x2="63.65" y2="167.98"/>
    <path class="cls-10" d="M120.84,160.68c0-.71.09-1.42.09-2.15a28.63,28.63,0,0,0-57.26,0c0,.6,0,1.2.06,1.79h-.06a6.79,6.79,0,1,0,3.77,12.43,28.63,28.63,0,0,0,49.24.8,6.63,6.63,0,0,0,2,.35,6.77,6.77,0,0,0,2.11-13.21Z"/>
    <path class="cls-24" d="M103.33,133.11s.72,15.73-11.33,16.79a274.44,274.44,0,0,1-27.46.53,16,16,0,0,1,7-16.05C80.71,127.9,104,126.66,103.33,133.11Z"/>
    <circle class="cls-3" cx="80.6" cy="157.47" r="2.29"/>
    <circle class="cls-3" cx="104.01" cy="157.65" r="2.29"/>
    <ellipse class="cls-26" cx="108.19" cy="166.61" rx="2.42" ry="2.06"/>
    <ellipse class="cls-26" cx="76.21" cy="166.72" rx="2.42" ry="2.06"/>
    <path class="cls-4" d="M88.43,168s.92,3.59,3.69,3.77S96,168.25,96,168"/>
    <circle class="cls-24" cx="74.33" cy="162.89" r="0.21"/>
    <circle class="cls-24" cx="76.03" cy="164.08" r="0.21"/>
    <circle class="cls-24" cx="76.69" cy="162.92" r="0.21"/>
    <circle class="cls-24" cx="73.13" cy="163.88" r="0.21"/>
    <circle class="cls-24" cx="72.02" cy="163.31" r="0.21"/>
    <circle class="cls-24" cx="71.26" cy="164.74" r="0.21"/>
    <circle class="cls-24" cx="110.98" cy="162.74" r="0.21"/>
    <circle class="cls-24" cx="109.28" cy="163.94" r="0.21"/>
    <circle class="cls-24" cx="108.62" cy="162.78" r="0.21"/>
    <circle class="cls-24" cx="112.18" cy="163.73" r="0.21"/>
    <circle class="cls-24" cx="113.3" cy="163.16" r="0.21"/>
    <circle class="cls-24" cx="114.05" cy="164.59" r="0.21"/>
  </g>
</svg>
