<svg xmlns="http://www.w3.org/2000/svg" width="268.75" height="225.88" viewBox="0 0 268.75 225.88">
  <defs>
    <style>
      .cls-1 {
        fill: #f7c4ba;
      }

      .cls-2, .cls-4 {
        fill: none;
        stroke: #7f5d5d;
        stroke-miterlimit: 10;
      }

      .cls-3 {
        fill: #565352;
      }

      .cls-4 {
        stroke-linecap: round;
      }

      .cls-5 {
        fill: #ff9881;
      }

      .cls-6 {
        fill: #f9eeed;
      }

      .cls-7 {
        fill: #8c8685;
      }

      .cls-8 {
        fill: #a44f52;
      }

      .cls-9 {
        fill: #562f23;
      }

      .cls-10 {
        fill: #f7dddc;
      }

      .cls-11 {
        fill: #fff;
      }

      .cls-12 {
        fill: #ea563d;
      }

      .cls-13 {
        fill: #ff8;
      }
    </style>
  </defs>
  <g id="Layer_4" data-name="Layer 4">
    <g>
      <path class="cls-1" d="M49.8,56.62H95.44A13.77,13.77,0,0,1,109.21,70.4v81.3a14.57,14.57,0,0,1-14.57,14.57H50.1a15,15,0,0,1-15-15v-80A14.68,14.68,0,0,1,49.8,56.62Z"/>
      <circle class="cls-1" cx="33.84" cy="108.48" r="11.25"/>
      <circle class="cls-1" cx="110.5" cy="108.48" r="11.25"/>
      <g>
        <path class="cls-2" d="M76.2,87.05h24.89a0,0,0,0,1,0,0v14.23a5.22,5.22,0,0,1-5.22,5.22H80.93a4.74,4.74,0,0,1-4.74-4.74V87.05A0,0,0,0,1,76.2,87.05Z"/>
        <path class="cls-2" d="M43.49,87.05H68.39a0,0,0,0,1,0,0v14.23a5.22,5.22,0,0,1-5.22,5.22H48.23a4.74,4.74,0,0,1-4.74-4.74V87.05a0,0,0,0,1,0,0Z"/>
        <line class="cls-2" x1="101.09" y1="87.05" x2="109.21" y2="87.05"/>
        <line class="cls-2" x1="43.49" y1="87.05" x2="35.12" y2="87.05"/>
        <line class="cls-2" x1="68.39" y1="90.72" x2="76.2" y2="90.77"/>
      </g>
      <circle class="cls-3" cx="89.13" cy="94.67" r="3.33"/>
      <circle class="cls-3" cx="55.45" cy="94.67" r="3.33"/>
      <path class="cls-4" d="M61.94,117s2.5,9.77,10,10.26S82.39,117.73,82.39,117"/>
      <ellipse class="cls-5" cx="95.51" cy="114.51" rx="3.51" ry="2.99"/>
      <ellipse class="cls-5" cx="49.08" cy="114.66" rx="3.51" ry="2.99"/>
      <path class="cls-6" d="M78.09,88.6h4.15a0,0,0,0,1,0,0v8.63a0,0,0,0,1,0,0h-3a1.14,1.14,0,0,1-1.14-1.14V88.6A0,0,0,0,1,78.09,88.6Z"/>
      <path class="cls-6" d="M45.57,88.6h4.15a0,0,0,0,1,0,0v8.63a0,0,0,0,1,0,0h-3a1.14,1.14,0,0,1-1.14-1.14V88.6A0,0,0,0,1,45.57,88.6Z"/>
      <circle class="cls-7" cx="40.25" cy="142.21" r="1.05"/>
      <circle class="cls-7" cx="44.56" cy="146.52" r="1.05"/>
      <circle class="cls-7" cx="39.2" cy="147.57" r="1.05"/>
      <circle class="cls-7" cx="42.46" cy="149.67" r="1.05"/>
      <circle class="cls-7" cx="46.66" cy="150.22" r="1.05"/>
      <circle class="cls-7" cx="46.66" cy="154.34" r="1.05"/>
      <circle class="cls-7" cx="50.98" cy="154.34" r="1.05"/>
      <circle class="cls-7" cx="50.98" cy="157.2" r="1.05"/>
      <circle class="cls-7" cx="104.09" cy="142.73" r="1.05"/>
      <circle class="cls-7" cx="99.78" cy="147.04" r="1.05"/>
      <circle class="cls-7" cx="105.14" cy="148.09" r="1.05"/>
      <circle class="cls-7" cx="101.88" cy="150.19" r="1.05"/>
      <circle class="cls-7" cx="97.67" cy="150.75" r="1.05"/>
      <circle class="cls-7" cx="97.67" cy="154.86" r="1.05"/>
      <circle class="cls-7" cx="93.36" cy="154.86" r="1.05"/>
      <circle class="cls-7" cx="93.36" cy="157.72" r="1.05"/>
      <circle class="cls-7" cx="60.18" cy="145.05" r="1.05"/>
      <circle class="cls-7" cx="62.99" cy="109.53" r="1.05"/>
      <circle class="cls-7" cx="60.18" cy="112.72" r="1.05"/>
      <circle class="cls-7" cx="55.94" cy="117" r="1.05"/>
      <circle class="cls-7" cx="81.22" cy="109.53" r="1.05"/>
      <circle class="cls-7" cx="84.87" cy="112.8" r="1.05"/>
      <circle class="cls-7" cx="89.69" cy="111.52" r="1.05"/>
      <circle class="cls-7" cx="89.13" cy="116.6" r="1.05"/>
      <circle class="cls-7" cx="87.59" cy="120.46" r="1.05"/>
      <circle class="cls-7" cx="56.51" cy="113.46" r="1.05"/>
      <circle class="cls-7" cx="78.09" cy="111.75" r="1.05"/>
      <circle class="cls-7" cx="66.59" cy="112.41" r="1.05"/>
      <circle class="cls-7" cx="64.49" cy="149.36" r="1.05"/>
      <circle class="cls-7" cx="59.13" cy="150.41" r="1.05"/>
      <circle class="cls-7" cx="62.39" cy="152.52" r="1.05"/>
      <circle class="cls-7" cx="54.31" cy="161.09" r="1.05"/>
      <circle class="cls-7" cx="57.57" cy="163.2" r="1.05"/>
      <circle class="cls-7" cx="67.18" cy="161.09" r="1.05"/>
      <circle class="cls-7" cx="70.44" cy="163.2" r="1.05"/>
      <circle class="cls-7" cx="62.97" cy="156.67" r="1.05"/>
      <circle class="cls-7" cx="59.71" cy="158.77" r="1.05"/>
      <circle class="cls-7" cx="53.66" cy="149.14" r="1.05"/>
      <circle class="cls-7" cx="54.71" cy="153.81" r="1.05"/>
      <circle class="cls-7" cx="59.35" cy="155.39" r="1.05"/>
      <circle class="cls-7" cx="55.76" cy="156.89" r="1.05"/>
      <circle class="cls-7" cx="50.4" cy="151.25" r="1.05"/>
      <circle class="cls-7" cx="66.59" cy="153.07" r="1.05"/>
      <circle class="cls-7" cx="66.59" cy="157.19" r="1.05"/>
      <circle class="cls-7" cx="70.91" cy="157.19" r="1.05"/>
      <circle class="cls-7" cx="70.91" cy="160.04" r="1.05"/>
      <circle class="cls-7" cx="75.48" cy="151.39" r="1.05"/>
      <circle class="cls-7" cx="73.71" cy="153.64" r="1.05"/>
      <circle class="cls-7" cx="81.44" cy="153.57" r="1.05"/>
      <circle class="cls-7" cx="76.53" cy="156.13" r="1.05"/>
      <circle class="cls-7" cx="78.32" cy="158.99" r="1.05"/>
      <circle class="cls-7" cx="82.87" cy="157.94" r="1.05"/>
      <circle class="cls-7" cx="84.36" cy="150.34" r="1.05"/>
      <circle class="cls-7" cx="89.08" cy="149.36" r="1.05"/>
      <circle class="cls-7" cx="84.36" cy="147.05" r="1.05"/>
      <circle class="cls-7" cx="86.03" cy="152.59" r="1.05"/>
      <circle class="cls-7" cx="88.02" cy="154.62" r="1.05"/>
      <circle class="cls-7" cx="88.02" cy="157.94" r="1.05"/>
      <circle class="cls-7" cx="85.92" cy="160.04" r="1.05"/>
      <circle class="cls-7" cx="81.44" cy="161.53" r="1.05"/>
      <circle class="cls-7" cx="76.17" cy="161.53" r="1.05"/>
      <circle class="cls-7" cx="69.86" cy="150.97" r="1.05"/>
      <circle class="cls-7" cx="70.91" cy="148.1" r="1.05"/>
      <path class="cls-8" d="M35.12,79.28s9.6-14.34,17-12.75,12.4,9.57,17.74,9.57,13.56-9.3,18.22-8.24,21.13,4.78,21.13,9.56c0,0,3.07-17-8.12-19.64,0,0-2.07-1.16-8.11-1.16H50.62s-6-.69-10.09,3.22-4.87,5.72-5.14,8.51S35.12,79.28,35.12,79.28Z"/>
    </g>
    <g>
      <path class="cls-9" d="M222.68,127.83s11.72,3.91,10.9,14.41-9.54,15.2-12,16.54-76.05,0-76.05,0-19.35-4.21-19.08-15.18,6.27-15.77,6.27-15.77-7.63-10.61-4.63-19.78S139,85.26,144.45,81.91s8.45-9.32,22.08-11.14,27.71.23,32.07,1.77,12.63,7.14,17.81,13.17S233.59,111,222.68,127.83Z"/>
      <circle class="cls-10" cx="176.87" cy="126.62" r="37.83"/>
      <path class="cls-9" d="M206.31,95.42s-1.93,16.89-17.86,19.79-45.37-7.72-49.71,2.41-7.24-13.51,7.24-22.2S195.69,84.8,206.31,95.42Z"/>
      <path class="cls-11" d="M163.78,140.64h24.47s1.17,7-12.23,6.9S163.78,140.64,163.78,140.64Z"/>
      <line class="cls-4" x1="157.74" y1="124.38" x2="154.84" y2="122.56"/>
      <line class="cls-4" x1="157.18" y1="126.49" x2="153.79" y2="126.02"/>
      <circle class="cls-3" cx="160.56" cy="126.25" r="3.2"/>
      <line class="cls-4" x1="196" y1="124.63" x2="198.9" y2="122.81"/>
      <line class="cls-4" x1="196.55" y1="126.74" x2="199.95" y2="126.27"/>
      <circle class="cls-3" cx="193.18" cy="126.5" r="3.2"/>
      <ellipse class="cls-5" cx="198.29" cy="137.14" rx="3.37" ry="2.87"/>
      <ellipse class="cls-5" cx="153.75" cy="137.29" rx="3.37" ry="2.87"/>
      <path class="cls-12" d="M163.78,140.64s11.58-4.45,12.24,0Z"/>
      <path class="cls-12" d="M188.25,140.64s-11.57-4.45-12.23,0Z"/>
      <circle class="cls-10" cx="214.59" cy="131.07" r="6.64"/>
      <circle class="cls-10" cx="139.04" cy="131.07" r="6.64"/>
      <circle class="cls-13" cx="217.34" cy="137.71" r="2.76"/>
      <circle class="cls-13" cx="136.28" cy="137.71" r="2.76"/>
    </g>
  </g>
</svg>
