<svg xmlns="http://www.w3.org/2000/svg" width="443.52" height="373.8" viewBox="0 0 443.52 373.8">
  <defs>
    <style>
      .cls-1, .cls-3 {
        fill: none;
      }

      .cls-1 {
        stroke: #82976f;
        stroke-width: 3px;
        stroke-dasharray: 25.16 25.16;
      }

      .cls-1, .cls-2, .cls-3 {
        stroke-miterlimit: 10;
      }

      .cls-2, .cls-4 {
        fill: #d0a886;
      }

      .cls-2, .cls-3 {
        stroke: #d0a886;
        stroke-width: 2px;
      }

      .cls-5 {
        fill: #3f592e;
      }
    </style>
  </defs>
  <g id="Layer_2" data-name="Layer 2">
    <circle class="cls-1" cx="222.06" cy="186.9" r="144.13"/>
    <g>
      <path class="cls-2" d="M171.73,252.66c.29,0,.58.72.58,1,0,.72-1.58,1.85-3.45,1.85-8.33,0-19.6-31.21-29.65-37.9l-6.6,9.47v27.61s0,.82-1.08.82-1.08-.82-1.08-.82v-75.6s0-.83,1.08-.83,1.08.83,1.08.83v43.67l30.51-43.47s.57-1,1.22-1a1.62,1.62,0,0,1,1.22,1.34,4.3,4.3,0,0,1-.72,1.55l-24.12,34.4c10,7,21.32,37.39,28.72,37.39A9.24,9.24,0,0,0,171.73,252.66Z"/>
      <path class="cls-2" d="M223.43,214.44c5.88,1,12.41,7.52,12.41,19,0,12.87-6.67,22.14-18.45,22.14H197.08c-.86,0-1.44-.82-1.44-2.06V180.35c0-1.23.58-2.06,1.44-2.06h14.57c12.28,0,20.46,4.84,20.46,19.57C232.11,208.26,227.45,212.9,223.43,214.44Zm-25.63-1h19.88c8.19,0,12.13-6.7,12.13-15.66,0-12.67-7-16.38-18.16-16.38H197.8Zm21,2.88h-21v36.15h18.45c11.91,0,17.23-8.55,17.23-18.95C233.48,223.3,227.09,216.3,218.83,216.3Z"/>
      <path class="cls-2" d="M266.14,225.36v29.36s0,.82-1.07.82-1.08-.82-1.08-.82v-75.6s0-.83,1.08-.83,1.07.83,1.07.83v43.15h39.49V179.12s0-.83,1.08-.83,1.07.83,1.07.83v75.6s0,.82-1.07.82-1.08-.82-1.08-.82V225.36Z"/>
    </g>
    <path class="cls-3" d="M67.49,81.22l-.25.38a12.37,12.37,0,0,0,8.91,18.72l6.47.89,18.09,2.5-9-15.86-3.24-5.68a12.37,12.37,0,0,0-20.69-1.32Z"/>
    <circle class="cls-4" cx="77.93" cy="88.28" r="7.46"/>
    <g>
      <path class="cls-5" d="M171.2,117.05v34.07h4.7v1H165.64v-1H170V117.05h-4.32v-1h10.8l8.32,27.06,8.37-27.06h10.53v1H199v34.07h4.7v1H189.24v-1h4.7v-33.8l-10.8,34.77h-1Z"/>
      <path class="cls-5" d="M215.8,117.05h-4.69v-1h14.36v1h-4.64v34.07h4.64v1H211.11v-1h4.69Z"/>
      <path class="cls-5" d="M250.58,151.12H256v1H240.16v-1h5.4V117.05H243c-3.62,0-4.81.59-6.65,3.34a20.82,20.82,0,0,0-2.53,7l-.71-.1.38-11.24h29l.7,11.24-.7.1c-2.16-7.93-4.27-10.31-9.13-10.36h-2.7Z"/>
    </g>
  </g>
</svg>
