<svg xmlns="http://www.w3.org/2000/svg" width="303.3" height="311.49" viewBox="0 0 303.3 311.49">
  <defs>
    <style>
      .cls-1, .cls-3 {
        fill: none;
      }

      .cls-1 {
        stroke: #82976f;
        stroke-width: 3px;
        stroke-dasharray: 25.16 25.16;
      }

      .cls-1, .cls-2, .cls-3 {
        stroke-miterlimit: 10;
      }

      .cls-2, .cls-4 {
        fill: #d0a886;
      }

      .cls-2, .cls-3 {
        stroke: #d0a886;
        stroke-width: 2px;
      }

      .cls-5 {
        fill: #3f592e;
      }

      .cls-6 {
        fill: #fff;
      }
    </style>
  </defs>
  <g id="Layer_2" data-name="Layer 2">
    <g id="Layer_2-2" data-name="Layer 2">
      <circle class="cls-1" cx="157.68" cy="165.87" r="144.13" transform="translate(-71.1 160.08) rotate(-45)"/>
      <g>
        <path class="cls-2" d="M107.35,231.62c.29,0,.58.72.58,1,0,.72-1.58,1.86-3.45,1.86-8.33,0-19.6-31.21-29.65-37.91l-6.6,9.48v27.6s0,.83-1.08.83-1.08-.83-1.08-.83v-75.6s0-.82,1.08-.82,1.08.82,1.08.82v43.67l30.51-43.46s.57-1,1.22-1a1.62,1.62,0,0,1,1.22,1.34,4.32,4.32,0,0,1-.72,1.54l-24.12,34.4c10,7,21.32,37.39,28.72,37.39A9.24,9.24,0,0,0,107.35,231.62Z"/>
        <path class="cls-2" d="M159.05,193.41c5.88,1,12.42,7.52,12.42,19,0,12.88-6.68,22.15-18.45,22.15H132.7c-.86,0-1.44-.83-1.44-2.06V159.32c0-1.24.58-2.06,1.44-2.06h14.57c12.28,0,20.46,4.84,20.46,19.57C167.73,187.23,163.07,191.87,159.05,193.41Zm-25.63-1H153.3c8.19,0,12.14-6.69,12.14-15.65,0-12.67-7-16.38-18.17-16.38H133.42Zm21,2.88h-21v36.16h18.45c11.91,0,17.23-8.55,17.23-18.95C169.1,202.27,162.71,195.26,154.45,195.26Z"/>
        <path class="cls-2" d="M201.76,204.33v29.35s0,.83-1.07.83-1.08-.83-1.08-.83v-75.6s0-.82,1.08-.82,1.07.82,1.07.82v43.16h39.49V158.08s0-.82,1.08-.82,1.07.82,1.07.82v75.6s0,.83-1.07.83-1.08-.83-1.08-.83V204.33Z"/>
      </g>
      <path class="cls-3" d="M3.11,60.19l-.25.38a12.37,12.37,0,0,0,8.92,18.72l6.46.89,18.09,2.5-9-15.87-3.24-5.67A12.37,12.37,0,0,0,3.37,59.81Z"/>
      <circle class="cls-4" cx="13.55" cy="67.25" r="7.46"/>
      <g>
        <path class="cls-5" d="M106.82,96v34.08h4.7v1H101.26v-1h4.32V96h-4.32V95h10.8l8.32,27.06L128.75,95h10.53v1h-4.7v34.08h4.7v1H124.86v-1h4.7V96.28l-10.8,34.78h-1Z"/>
        <path class="cls-5" d="M151.42,96h-4.69V95h14.36v1h-4.64v34.08h4.64v1H146.73v-1h4.69Z"/>
        <path class="cls-5" d="M186.2,130.09h5.4v1H175.78v-1h5.4V96h-2.59c-3.62,0-4.81.6-6.65,3.35a20.73,20.73,0,0,0-2.53,7l-.71-.11L169.08,95H198l.7,11.23-.7.11c-2.16-7.94-4.27-10.31-9.13-10.37h-2.7Z"/>
      </g>
      <rect class="cls-6" x="40.22" width="87.86" height="79.79"/>
    </g>
  </g>
</svg>
